# xmcd CD database file
#
# Track frame offsets:
#	150
#	23245
#	37590
#	69200
#	93643
#	117545
#	139985
#	169038
#
# Disc length: 2489 seconds
#
# Revision: 0
# Processed by: cddbd v1.4PL0 Copyright (c) Steve Scherf et al.
# Submitted via: CDex 1.50
#
DISCID=6409b708
DTITLE=Shades Of Jade - Shades Of Jade
DYEAR=1900
DGENRE=Jazz
TTITLE0=El Pasado Bueno
TTITLE1=Stalking My Prey
TTITLE2=Afro Blue
TTITLE3=El Mundo
TTITLE4=Morality
TTITLE5=Silver Serenade
TTITLE6=Catalina
TTITLE7=Viya Olatunji
EXTD=
EXTT0=
EXTT1=
EXTT2=
EXTT3=
EXTT4=
EXTT5=
EXTT6=
EXTT7=
PLAYORDER=
